<svg width="30" height="24" viewBox="0 0 30 24" fill="current" xmlns="http://www.w3.org/2000/svg">
<path d="M26.9287 6.02531C26.947 6.28531 26.947 6.54531 26.947 6.8077C26.947 14.803 20.7556 24.024 9.43449 24.024V24.0192C6.09019 24.024 2.81536 23.0822 0 21.3066C0.486289 21.3641 0.975015 21.3928 1.46496 21.394C4.23644 21.3964 6.9287 20.4822 9.10908 18.7988C6.47532 18.7497 4.16575 17.0615 3.35893 14.5969C4.28154 14.7718 5.23218 14.7359 6.13772 14.4927C3.2663 13.9223 1.20049 11.4422 1.20049 8.5618V8.48512C2.05606 8.95359 3.01402 9.21359 3.99391 9.24235C1.28946 7.46549 0.45582 3.92854 2.08897 1.1632C5.21389 4.94337 9.8245 7.24143 14.7739 7.48466C14.2779 5.3831 14.9555 3.18089 16.5545 1.70357C19.0335 -0.587301 22.9324 -0.469882 25.2626 1.96596C26.6411 1.69878 27.9622 1.20154 29.1712 0.497028C28.7118 1.89767 27.7502 3.08744 26.4656 3.84347C27.6856 3.70209 28.8775 3.38098 30 2.89094C29.1737 4.10826 28.1328 5.16863 26.9287 6.02531Z" fill="current"/>
</svg>
