<svg width="30" height="18" viewBox="0 0 30 18" fill="current" xmlns="http://www.w3.org/2000/svg">
<path d="M29.32 1.23C28.9825 2.29125 28.5275 3.215 27.9575 4.05375L27.9813 4.01625C27.4213 4.94958 26.7525 6.02792 25.975 7.25125C25.3083 8.21708 24.9554 8.71708 24.9163 8.75125C24.7438 8.9675 24.6238 9.2325 24.5825 9.52375L24.5813 9.5325C24.615 9.7975 24.7375 10.0288 24.9163 10.2013L25.4163 10.7588C28.0913 13.5079 29.5958 15.4029 29.93 16.4438C29.9738 16.5588 29.9988 16.6913 29.9988 16.83C29.9988 17.0725 29.9213 17.2963 29.79 17.48L29.7925 17.4763C29.5725 17.7025 29.265 17.8425 28.925 17.8425C28.8875 17.8425 28.8488 17.8413 28.8125 17.8375H28.8175H25.5288C25.5275 17.8375 25.525 17.8375 25.5225 17.8375C25.1013 17.8375 24.7138 17.69 24.41 17.445L24.4138 17.4475C23.9713 17.0838 23.5775 16.69 23.225 16.2625L23.2138 16.2475C22.6379 15.5967 22.1271 15.0488 21.6813 14.6038C20.1963 13.1921 19.1004 12.4863 18.3938 12.4863C18.3675 12.4838 18.3375 12.4825 18.3063 12.4825C18.1 12.4825 17.9075 12.5463 17.7488 12.655L17.7525 12.6525C17.6225 12.815 17.5438 13.025 17.5438 13.2513C17.5438 13.2963 17.5463 13.3388 17.5525 13.3825V13.3775C17.5188 13.77 17.4988 14.2263 17.4988 14.6875C17.4988 14.8363 17.5013 14.9838 17.505 15.1313V15.11V16.5588C17.5175 16.6175 17.525 16.685 17.525 16.7537C17.525 17.0562 17.3875 17.3263 17.1725 17.505L17.1713 17.5063C16.6875 17.7275 16.1225 17.8575 15.5263 17.8575C15.3988 17.8575 15.2738 17.8513 15.15 17.84L15.1663 17.8413C13.1988 17.8038 11.3738 17.2275 9.8225 16.2563L9.86625 16.2813C7.9775 15.1338 6.4125 13.64 5.22 11.875L5.18625 11.8225C4.05375 10.32 2.9975 8.6225 2.0975 6.8325L2.01 6.64C1.48375 5.6375 0.938754 4.405 0.468754 3.1375L0.393754 2.90625C0.202504 2.33625 0.0637537 1.67375 0.00625366 0.987502L0.00375366 0.956252C0.00375366 0.324586 0.37542 0.00875258 1.11875 0.00875258H4.40625C4.43625 0.00625258 4.47125 0.00500226 4.5075 0.00500226C4.8175 0.00500226 5.10375 0.111252 5.33 0.290002L5.3275 0.287503C5.5775 0.561253 5.7625 0.897502 5.85375 1.2725L5.8575 1.2875C6.4625 2.99625 7.10375 4.43125 7.84125 5.80625L7.7575 5.635C8.36 6.8475 9.02625 7.89125 9.78625 8.855L9.7575 8.81625C10.4242 9.63458 10.9442 10.0438 11.3175 10.0438C11.3288 10.045 11.3425 10.045 11.3575 10.045C11.5425 10.045 11.7038 9.945 11.7913 9.795L11.7925 9.7925C11.885 9.555 11.9388 9.27875 11.9388 8.99125C11.9388 8.93 11.9363 8.86875 11.9313 8.80875V8.81625V3.9675C11.905 3.39625 11.765 2.8625 11.5313 2.38375L11.5413 2.4075C11.3863 2.0775 11.2 1.7925 10.9788 1.53875L10.9825 1.54375C10.7775 1.33875 10.6375 1.07 10.5938 0.770002L10.5925 0.762502C10.5925 0.550002 10.69 0.358752 10.8425 0.233752L10.8438 0.232502C10.995 0.0937524 11.1975 0.0100025 11.4188 0.0100025H11.4288H16.6113C16.6388 0.00625249 16.67 0.00500226 16.7025 0.00500226C16.9463 0.00500226 17.165 0.115003 17.31 0.287503L17.3113 0.288753C17.44 0.523752 17.5163 0.805003 17.5163 1.1025C17.5163 1.15 17.5138 1.19625 17.51 1.2425V1.23625V7.7025C17.5075 7.7325 17.5063 7.7675 17.5063 7.8025C17.5063 8.0325 17.57 8.24875 17.68 8.4325L17.6775 8.4275C17.7688 8.5625 17.9213 8.65 18.0938 8.65H18.095C18.315 8.635 18.515 8.5625 18.6838 8.4475L18.68 8.45C19.02 8.21625 19.3125 7.95 19.5663 7.64875L19.5713 7.6425C20.33 6.785 21.03 5.8375 21.64 4.83L21.6888 4.7425C22.1188 4.03 22.5838 3.1525 23.005 2.25125L23.0825 2.0675L23.64 0.952502C23.8338 0.395002 24.3538 0.00250244 24.965 0.00250244C24.9888 0.00250244 25.0125 0.00250235 25.0363 0.00375235H25.0325H28.3213C29.2096 0.00375235 29.5429 0.412502 29.3213 1.23H29.32Z" fill="current"/>
</svg>
